<svg xmlns="http://www.w3.org/2000/svg" viewBox="0 0 231.88 112.68"><defs><style>.cls-1{fill:none;stroke:#1a171b;stroke-linecap:round;stroke-linejoin:round;stroke-width:0.22px;}.cls-2{fill:#1a171b;}.cls-3{fill:#00dbff;}.cls-4{fill:#fff;}</style></defs><title>Element 3</title><g id="Ebene_2" data-name="Ebene 2"><g id="schrift"><line class="cls-1" x1="71.59" y1="110.63" x2="132.48" y2="94.93"/><line class="cls-1" x1="27.98" y1="72.38" x2="40.14" y2="46.11"/><line class="cls-1" x1="132.48" y1="94.93" x2="86.51" y2="79.11"/><line class="cls-1" x1="71.59" y1="110.63" x2="86.48" y2="79.18"/><line class="cls-1" x1="86.48" y1="79.05" x2="40.12" y2="46.1"/><line class="cls-1" x1="42.35" y1="89.18" x2="86.51" y2="79.11"/><line class="cls-1" x1="27.98" y1="72.38" x2="86.51" y2="79.11"/><line class="cls-1" x1="42.25" y1="89.18" x2="71.59" y2="110.67"/><line class="cls-1" x1="140.85" y1="41.15" x2="94.04" y2="8.37"/><line class="cls-1" x1="140.83" y1="41.13" x2="182.65" y2="111.02"/><line class="cls-1" x1="94.05" y1="8.38" x2="132.48" y2="94.93"/><line class="cls-1" x1="136.11" y1="1.58" x2="94.05" y2="8.39"/><line class="cls-1" x1="42.32" y1="89.21" x2="27.97" y2="72.38"/><line class="cls-1" x1="182.65" y1="111.01" x2="132.48" y2="94.93"/><line class="cls-1" x1="140.85" y1="41.16" x2="132.48" y2="94.93"/><line class="cls-1" x1="86.51" y1="79.11" x2="94.05" y2="8.41"/><line class="cls-1" x1="40.15" y1="46.11" x2="63.98" y2="41.15"/><line class="cls-1" x1="94.05" y1="8.39" x2="64" y2="41.15"/><line class="cls-1" x1="1.67" y1="90.92" x2="27.98" y2="72.38"/><line class="cls-1" x1="1.67" y1="90.92" x2="42.27" y2="89.19"/><line class="cls-1" x1="11.56" y1="61.84" x2="27.98" y2="72.38"/><line class="cls-1" x1="11.56" y1="61.84" x2="40.14" y2="46.11"/><line class="cls-1" x1="11.56" y1="61.84" x2="1.67" y2="90.92"/><line class="cls-1" x1="86.51" y1="79.11" x2="64.01" y2="41.15"/><line class="cls-1" x1="140.85" y1="41.14" x2="136.14" y2="1.68"/><circle class="cls-2" cx="182.66" cy="111.01" r="1.67"/><circle class="cls-2" cx="42.27" cy="89.19" r="1.67"/><path class="cls-3" d="M94.05,11a2.59,2.59,0,0,1-2.49-1.88A2.6,2.6,0,0,1,93.33,5.9a2.57,2.57,0,0,1,.73-.1,2.6,2.6,0,0,1,2.49,1.88,2.54,2.54,0,0,1-.22,2,2.65,2.65,0,0,1-1.56,1.24A2.84,2.84,0,0,1,94.05,11Z"/><path class="cls-4" d="M94.05,6.34a2.06,2.06,0,0,1,.57,4,2.24,2.24,0,0,1-.57.08,2.06,2.06,0,0,1-.57-4,1.91,1.91,0,0,1,.57-.08m0-1.09h0a3.27,3.27,0,0,0-.87.13,3.14,3.14,0,0,0,1.74,6,3.14,3.14,0,0,0,2.15-3.89,3.15,3.15,0,0,0-3-2.28Z"/><circle class="cls-2" cx="27.98" cy="72.38" r="1.67"/><circle class="cls-2" cx="11.56" cy="61.84" r="1.67"/><circle class="cls-2" cx="86.51" cy="79.11" r="1.67"/><circle class="cls-2" cx="132.48" cy="94.93" r="1.67"/><circle class="cls-2" cx="40.14" cy="46.11" r="1.61"/><circle class="cls-2" cx="71.59" cy="110.63" r="1.94"/><circle class="cls-2" cx="1.67" cy="90.92" r="1.67"/><path class="cls-3" d="M64,43.74a2.65,2.65,0,0,1-1.26-.32,2.62,2.62,0,1,1,1.26.32Z"/><path class="cls-4" d="M64,39.08a2,2,0,0,1,1,.26,2.06,2.06,0,0,1-1,3.86,2,2,0,0,1-1-.26,2.06,2.06,0,0,1,1-3.86M64,38h0a3.14,3.14,0,1,0,2.75,4.66A3.11,3.11,0,0,0,67,40.27,3.14,3.14,0,0,0,64,38Z"/><circle class="cls-2" cx="136.12" cy="1.67" r="1.67"/><rect class="cls-2" x="92.77" y="13.3" width="2.61" height="18.96"/><path class="cls-4" d="M95,13.66V31.89H93.13V13.66H95m.73-.73H92.41V32.62h3.34V12.93Z"/><path class="cls-2" d="M107.87,32.6c-5.15,0-7.54-3-7.54-9.36,0-6.83,2.49-10.29,7.4-10.29,4.18,0,6.47,2.52,6.47,7.1,0,.51,0,1.82-.06,2.86l0,.34h-.34s-6.93.16-10.7.23c.07,5.54,1.83,6.63,4.82,6.63.76,0,1.72-.08,5-1.11l.37-.12.53,2.51-.32.09A22.28,22.28,0,0,1,107.87,32.6Zm-.14-17.34c-2,0-4.35.69-4.6,6l8.48-.16c0-.57,0-1.11,0-1.23C111.63,16.81,110.32,15.26,107.73,15.26Z"/><path class="cls-4" d="M107.73,13.31c3.71,0,6.11,2.06,6.11,6.74,0,.51,0,1.82-.07,2.85l-11,.24c0,5.7,1.68,7.35,5.18,7.35.76,0,1.72-.07,5.15-1.14l.38,1.79a22.26,22.26,0,0,1-5.56,1.1c-5,0-7.18-2.92-7.18-9,0-6.84,2.51-9.93,7-9.93m-5,8.31,9.2-.17c0-.68,0-1.44,0-1.58,0-3.4-1.58-5-4.26-5-3,0-4.84,1.72-5,6.73m5-9c-5.15,0-7.76,3.58-7.76,10.65,0,6.54,2.58,9.72,7.9,9.72a22.36,22.36,0,0,0,5.75-1.12l.66-.18-.14-.67-.38-1.79-.16-.77-.76.23c-3.28,1-4.21,1.1-4.94,1.1-2.77,0-4.32-1-4.45-5.92,3.84-.07,10.34-.22,10.34-.22l.68,0,0-.68c0-1,.07-2.35.07-2.87,0-4.81-2.43-7.46-6.84-7.46Zm-4.22,8.3c.32-4.63,2.3-5.27,4.22-5.27,2.38,0,3.54,1.39,3.54,4.25,0,.3,0,.59,0,.87-1.53,0-5.25.09-7.75.15Z"/><path class="cls-2" d="M130.24,32.25V17.64c0-1.59-.2-2.14-2.45-2.14a14,14,0,0,0-6,1.61V32.25h-2.61V13.3h2.61v1.48A15.34,15.34,0,0,1,128.41,13c1.91,0,4.44.42,4.44,4v15.3Z"/><path class="cls-4" d="M128.41,13.31c2.47,0,4.08.83,4.08,3.64V31.89H130.6V17.64c0-1.78-.37-2.51-2.81-2.51a14.51,14.51,0,0,0-6.39,1.76v15h-1.89V13.66h1.89v1.61h.17c2.89-1.37,4.81-2,6.84-2m0-.72a14.77,14.77,0,0,0-6.29,1.63V12.93h-3.33V32.62h3.33V17.34a13.39,13.39,0,0,1,5.67-1.48c2.09,0,2.09.45,2.09,1.78v15h3.34V17c0-2.93-1.58-4.36-4.81-4.36Z"/><path class="cls-2" d="M145,32.6c-4.86,0-7.23-3.22-7.23-9.84S140.06,13,145.06,13a20,20,0,0,1,4.37.56l.36.08-.57,2.57-.37-.09a14.58,14.58,0,0,0-3.68-.64c-3.42,0-4.69,2-4.69,7.33,0,6.08,1.83,7.33,4.58,7.33.87,0,1.49,0,4.11-.94l.38-.13.58,2.54-.32.09A15.38,15.38,0,0,1,145,32.6Z"/><path class="cls-4" d="M145.06,13.31a20,20,0,0,1,4.3.55L149,15.72a14.38,14.38,0,0,0-3.78-.65c-3.68,0-5,2.16-5,7.69,0,6,1.79,7.69,4.94,7.69.93,0,1.62-.07,4.23-1l.41,1.82a15.12,15.12,0,0,1-4.74.93c-4.57,0-6.87-2.92-6.87-9.48,0-6.77,2.44-9.45,7-9.45m0-.72c-5.17,0-7.69,3.33-7.69,10.17S139.85,33,145,33a15.79,15.79,0,0,0,5-1l.63-.2-.14-.65L150,29.33l-.17-.78-.76.26c-2.58.88-3.17.92-4,.92-2.13,0-4.22-.54-4.22-7,0-5.83,1.59-7,4.33-7a13.39,13.39,0,0,1,3.59.63l.73.19.16-.74.41-1.85.16-.71-.71-.15a20.23,20.23,0,0,0-4.45-.57Z"/><path class="cls-2" d="M160.49,32.6c-5.15,0-7.54-3-7.54-9.36,0-6.83,2.49-10.29,7.4-10.29,4.17,0,6.47,2.52,6.47,7.1,0,.51,0,1.82-.07,2.86v.34h-.34s-6.93.16-10.7.23c.07,5.54,1.83,6.63,4.82,6.63.76,0,1.72-.08,5-1.11l.38-.12.53,2.51-.33.09A22.15,22.15,0,0,1,160.49,32.6Zm-.14-17.34c-2,0-4.36.69-4.61,6l8.49-.16c0-.57,0-1.11,0-1.23C164.25,16.81,162.94,15.26,160.35,15.26Z"/><path class="cls-4" d="M160.35,13.31c3.71,0,6.11,2.06,6.11,6.74,0,.51,0,1.82-.07,2.85l-11,.24c0,5.7,1.68,7.35,5.18,7.35.76,0,1.72-.07,5.15-1.14l.38,1.79a22.26,22.26,0,0,1-5.56,1.1c-5,0-7.18-2.92-7.18-9,0-6.84,2.51-9.93,7-9.93m-5,8.31,9.2-.17c0-.68,0-1.44,0-1.58,0-3.4-1.58-5-4.26-5-3,0-4.84,1.72-5,6.73m5-9c-5.15,0-7.76,3.58-7.76,10.65,0,6.54,2.58,9.72,7.9,9.72a22.36,22.36,0,0,0,5.75-1.12l.66-.18-.14-.67-.38-1.79-.16-.77-.76.23c-3.28,1-4.21,1.1-4.94,1.1-2.77,0-4.32-1-4.45-5.92,3.84-.07,10.34-.22,10.34-.22l.68,0,0-.68c0-1,.07-2.35.07-2.87,0-4.81-2.43-7.46-6.84-7.46Zm-4.22,8.3c.32-4.63,2.3-5.27,4.22-5.27,2.38,0,3.53,1.39,3.53,4.25,0,.3,0,.59,0,.87-1.52,0-5.24.09-7.74.15Z"/><path class="cls-2" d="M177.4,23.1c-2.71,0-4-1.68-4-5.12s1.32-5.13,4-5.13,4,1.68,4,5.13S180.08,23.1,177.4,23.1Zm0-9.26c-1.48,0-2.84.5-2.84,4.14,0,2.94.82,4.13,2.84,4.13s2.8-1.19,2.8-4.13C180.2,14.33,178.78,13.84,177.4,13.84Z"/><path class="cls-2" d="M177.4,12.9c2.22,0,3.94,1.15,3.94,5.08,0,3.74-1.55,5.07-3.94,5.07s-4-1.35-4-5.07,1.62-5.08,4-5.08m0,9.26c1.84,0,2.85-.95,2.85-4.18,0-3.44-1.22-4.19-2.85-4.19-1.79,0-2.89.86-2.89,4.19s1,4.18,2.89,4.18m0-9.36c-2.75,0-4.08,1.7-4.08,5.18s1.33,5.17,4.08,5.17,4-1.69,4-5.17-1.33-5.18-4-5.18Zm0,9.26c-2,0-2.79-1.18-2.79-4.08,0-3.6,1.34-4.09,2.79-4.09,2.42,0,2.75,2,2.75,4.09,0,3.59-1.32,4.08-2.75,4.08Z"/><path class="cls-2" d="M185.07,22.91,185,14l-1.35,0,0-.95,1.45-.05,0-1.39c0-2,1-3.16,2.76-3.16a2.94,2.94,0,0,1,.79.1l-.06,1c-.34,0-.63-.06-.86-.06-1.06,0-1.51.51-1.51,1.71v1.81l2.45-.05,0,1-2.55,0,0,8.87Z"/><path class="cls-2" d="M187.78,8.54a3.26,3.26,0,0,1,.77.09l-.09,1a3.18,3.18,0,0,0-.81-.11c-1,0-1.56.42-1.56,1.76v1.81h2.5V14h-2.5v8.87h-1V14h-1.4v-.9h1.4V11.65c0-2,.89-3.11,2.71-3.11m0-.1C186,8.44,185,9.58,185,11.65V13h-1.4v1.1H185V23h1.22V14.09h2.5V13h-2.5V11.28c0-1.17.43-1.66,1.46-1.66a4,4,0,0,1,.79.1l.11,0V9.64l.09-1V8.56l-.08,0a3.06,3.06,0,0,0-.8-.1Z"/><path class="cls-2" d="M66.65,32.6a21.14,21.14,0,0,1-5.48-.91l-.35-.09.63-2.49.35.1a17.48,17.48,0,0,0,5,1c1.29,0,3.45-.35,3.45-2.73,0-1.63-.67-2.33-3.1-3.27l-2.78-1.1C62.15,22.24,61,20.8,61,18.81,61,15.25,63.56,13,67.48,13a28.19,28.19,0,0,1,4.42.45l.37.07-.53,2.58L71.38,16a16.1,16.1,0,0,0-4-.61c-1.36,0-3.65.41-3.65,3.14,0,1.39.36,1.73,3,2.79l2.91,1.17a4.79,4.79,0,0,1,3.25,4.59C72.85,30.52,70.53,32.6,66.65,32.6Z"/><path class="cls-4" d="M67.48,13.31a27.78,27.78,0,0,1,4.36.45l-.38,1.85A17,17,0,0,0,67.37,15c-2.19,0-4,1-4,3.5,0,1.65.58,2.06,3.19,3.12l2.92,1.17a4.47,4.47,0,0,1,3,4.26c0,3.5-2.37,5.19-5.84,5.19a21,21,0,0,1-5.39-.9l.45-1.78a18.1,18.1,0,0,0,5.08,1c2.23,0,3.81-1,3.81-3.09,0-1.85-.82-2.64-3.33-3.6l-2.78-1.1c-2-.76-3.09-2-3.09-4,0-3.5,2.47-5.5,6.08-5.5m0-.72c-4.13,0-6.8,2.44-6.8,6.22,0,2.16,1.19,3.71,3.55,4.62L67,24.53c2.45.94,2.87,1.56,2.87,2.93,0,2-1.68,2.37-3.09,2.37a17.15,17.15,0,0,1-4.89-1l-.71-.2-.18.72-.45,1.79-.17.69.69.18a21.34,21.34,0,0,0,5.57.92c4.11,0,6.56-2.21,6.56-5.91a5.21,5.21,0,0,0-3.47-4.93L66.82,21c-2.66-1.08-2.74-1.33-2.74-2.45,0-2.3,1.79-2.78,3.29-2.78a15.9,15.9,0,0,1,3.93.6l.72.16.15-.72.38-1.85.14-.73L72,13.05a28.18,28.18,0,0,0-4.49-.46Z"/><path class="cls-2" d="M83.41,32.6c-4.86,0-7.23-3.22-7.23-9.84S78.51,13,83.52,13a20.18,20.18,0,0,1,4.37.56l.35.08-.57,2.57-.37-.09a14.51,14.51,0,0,0-3.68-.64c-3.42,0-4.69,2-4.69,7.33,0,6.08,1.84,7.33,4.59,7.33.86,0,1.48,0,4.1-.94L88,29l.58,2.54-.32.09A15.38,15.38,0,0,1,83.41,32.6Z"/><path class="cls-4" d="M83.52,13.31a20,20,0,0,1,4.29.55l-.41,1.86a14.38,14.38,0,0,0-3.78-.65c-3.68,0-5.05,2.16-5.05,7.69,0,6,1.79,7.69,5,7.69.92,0,1.61-.07,4.22-1l.41,1.82a15.12,15.12,0,0,1-4.74.93c-4.56,0-6.86-2.92-6.86-9.48,0-6.77,2.43-9.45,7-9.45m0-.72c-5.18,0-7.7,3.33-7.7,10.17S78.31,33,83.41,33a15.74,15.74,0,0,0,5-1l.64-.2-.15-.65-.41-1.82-.18-.78-.76.26c-2.57.88-3.17.92-4,.92-2.14,0-4.23-.54-4.23-7,0-5.83,1.59-7,4.33-7a13.33,13.33,0,0,1,3.59.63l.73.19.16-.74L88.51,14l.16-.71L88,13.16a20.23,20.23,0,0,0-4.44-.57Z"/><path class="cls-2" d="M95.1,67.31c-2.73,0-3.95-1.33-3.95-4.33V51.18H88.57V47.74h2.58v-4L95,43v4.71h5.37v3.44H95V62.94c0,.58.15.72.72.72s1.35-.09,4.08-1.26l.4-.17.75,3.48-.28.11C97.23,67.21,96.19,67.31,95.1,67.31Z"/><path class="cls-4" d="M94.61,43.47V48.1H100v2.72H94.61V63c0,.8.35,1.08,1.08,1.08.56,0,1.36-.07,4.22-1.29l.59,2.75C97.16,66.85,96.15,67,95.1,67c-2.54,0-3.59-1.22-3.59-4V50.82H88.93V48.1h2.58v-4l3.1-.59m.73-.88-.86.17-3.1.59-.59.11v3.92H88.21v4.16h2.58V63c0,3.16,1.41,4.69,4.31,4.69,1.14,0,2.21-.1,5.67-1.51l.56-.23-.12-.59-.6-2.76-.18-.85-.81.34c-2.88,1.23-3.54,1.23-3.93,1.23a.71.71,0,0,1-.32,0,1.84,1.84,0,0,1,0-.31V51.54h5.36V47.38H95.34V42.59Z"/><rect class="cls-2" x="62.16" y="47.74" width="3.82" height="19.22"/><path class="cls-4" d="M65.62,48.1V66.6h-3.1V48.1h3.1m.72-.72H61.8V67.33h4.54V47.38Z"/><path class="cls-3" d="M140.84,43.74a2.6,2.6,0,0,1-2.28-3.86,2.58,2.58,0,0,1,1.56-1.24,2.5,2.5,0,0,1,.72-.1,2.6,2.6,0,0,1,.72,5.1A2.55,2.55,0,0,1,140.84,43.74Z"/><path class="cls-4" d="M140.84,39.08a2.06,2.06,0,0,1,.57,4,2.24,2.24,0,0,1-.57.08,2.06,2.06,0,0,1-.57-4,2.24,2.24,0,0,1,.57-.08m0-1.08h0a3.15,3.15,0,0,0-.87.12,3.07,3.07,0,0,0-1.88,1.5,3.14,3.14,0,0,0,2.75,4.66,3.26,3.26,0,0,0,.87-.12,3.14,3.14,0,0,0-.87-6.16Z"/><polygon class="cls-2" points="129.91 66.97 129.91 39.64 133.73 39.08 133.73 66.97 129.91 66.97"/><path class="cls-4" d="M133.37,39.5V66.6h-3.1V40l3.1-.45m.72-.84-.82.12-3.1.45-.62.09v28h4.54V38.66Z"/><path class="cls-2" d="M110.48,67.31c-5.47,0-8.13-3.11-8.13-9.52,0-6.9,2.66-10.4,7.89-10.4,4.48,0,7,2.66,7,7.47,0,.6-.11,3-.11,3v.34h-.34c-3.47.07-6.88.14-10.38.23.07,4.49,1.52,5.35,4.13,5.35.78,0,1.83-.09,5.26-1.16l.38-.12.71,3.47-.32.09A22.49,22.49,0,0,1,110.48,67.31Zm-.31-16.9c-1.85,0-3.58.65-3.77,5.23,2.24,0,5.89-.11,7-.12,0-.51,0-1,0-1.15C113.43,51.71,112.36,50.41,110.17,50.41Z"/><path class="cls-4" d="M110.24,47.75c4.08,0,6.58,2.27,6.58,7.11,0,.59-.1,3-.1,3-3.59.07-7.11.14-10.73.24,0,4.74,1.39,6.06,4.49,6.06.77,0,1.81-.06,5.37-1.18l.56,2.75A22,22,0,0,1,110.48,67c-5.33,0-7.77-3-7.77-9.16,0-6.93,2.76-10,7.53-10M106,56c2.58-.07,7.74-.14,7.74-.14,0-.62,0-1.29,0-1.5,0-3-1.32-4.32-3.62-4.32-2.54,0-4,1.43-4.15,6m4.22-9C106.48,47,102,48.9,102,57.79c0,6.65,2.78,9.88,8.49,9.88a23.06,23.06,0,0,0,6.13-1.24l.64-.19-.14-.65-.55-2.75-.16-.79-.77.24c-3.39,1.06-4.4,1.15-5.15,1.15-2.41,0-3.63-.71-3.76-4.64,3.23-.08,6.34-.15,10-.22h.68l0-.68c0-.1.11-2.43.11-3,0-5-2.6-7.83-7.31-7.83Zm-3.46,8.24c.27-4.13,1.88-4.49,3.39-4.49,1.24,0,2.9.37,2.9,3.59,0,.14,0,.44,0,.79-1.31,0-4.24.06-6.28.11Z"/><rect class="cls-2" x="138.83" y="47.74" width="3.82" height="19.22"/><path class="cls-4" d="M142.29,48.1V66.6h-3.1V48.1h3.1m.72-.72h-4.55V67.33H143V47.38Z"/><polygon class="cls-2" points="120.99 66.97 120.99 39.64 124.81 39.08 124.81 66.97 120.99 66.97"/><path class="cls-4" d="M124.45,39.5V66.6h-3.1V40l3.1-.45m.72-.84-.82.12-3.1.45-.62.09v28h4.54V38.66Z"/><path class="cls-2" d="M194.11,67V52.7c0-1.23-.16-1.69-1.93-1.69a12.59,12.59,0,0,0-5.29,1.33V67h-3.82V47.74h3.82v1.51c3.13-1.49,4.43-1.86,6.4-1.86,3.13,0,4.65,1.47,4.65,4.48V67Z"/><path class="cls-4" d="M193.29,47.75c2.61,0,4.29,1,4.29,4.12V66.6h-3.1V52.7c0-1.46-.35-2.05-2.3-2.05a12.94,12.94,0,0,0-5.65,1.46V66.6h-3.1V48.1h3.1v1.61h.25c3.34-1.61,4.6-2,6.51-2m0-.72c-1.9,0-3.24.35-6,1.65v-1.3h-4.54V67.33h4.54V52.57a12,12,0,0,1,4.93-1.2c1.57,0,1.57.28,1.57,1.33V67.33h4.55V51.87c0-3.21-1.69-4.84-5-4.84Z"/><path class="cls-2" d="M209.35,67.31c-5.17,0-7.68-3.26-7.68-10s2.58-10,7.68-10a19.76,19.76,0,0,1,4.75.64l.34.08-.74,3.59-.38-.12a11.57,11.57,0,0,0-3.66-.68c-2.56,0-4,1-4,6.4s1.44,6.5,3.93,6.5c.88,0,1.63-.15,4-1.09l.4-.15.75,3.59-.31.1A15.68,15.68,0,0,1,209.35,67.31Z"/><path class="cls-4" d="M209.35,47.75a19.61,19.61,0,0,1,4.67.63l-.59,2.86a12.07,12.07,0,0,0-3.77-.7c-3.17,0-4.32,1.78-4.32,6.76,0,5.44,1.43,6.86,4.29,6.86.9,0,1.67-.13,4.14-1.11l.6,2.86a15.55,15.55,0,0,1-5,1C204.54,67,202,64,202,57.34s2.65-9.59,7.32-9.59m0-.72c-5.33,0-8,3.47-8,10.31s2.71,10.33,8,10.33a16.13,16.13,0,0,0,5.24-1.08l.62-.2-.14-.63-.59-2.86-.17-.84-.8.32c-2.52,1-3.15,1.06-3.88,1.06-1.95,0-3.56-.46-3.56-6.14,0-5.1,1.21-6,3.59-6a11.16,11.16,0,0,1,3.55.67l.76.24.16-.78.6-2.86.14-.7-.69-.15a20,20,0,0,0-4.83-.65Z"/><path class="cls-2" d="M224.82,67.31c-5.47,0-8.13-3.11-8.13-9.52,0-6.9,2.65-10.4,7.88-10.4,4.48,0,7,2.66,7,7.47,0,.6-.1,3-.1,3l0,.34h-.34c-3.47.07-6.87.14-10.37.23.07,4.49,1.51,5.35,4.13,5.35.77,0,1.82-.09,5.25-1.16l.39-.12.7,3.47-.32.09A22.37,22.37,0,0,1,224.82,67.31Zm-.32-16.9c-1.84,0-3.57.65-3.77,5.23,2.24,0,5.89-.11,7-.12,0-.51,0-1,0-1.15C227.77,51.71,226.7,50.41,224.5,50.41Z"/><path class="cls-4" d="M224.57,47.75c4.08,0,6.59,2.27,6.59,7.11,0,.59-.11,3-.11,3-3.58.07-7.1.14-10.73.24,0,4.74,1.4,6.06,4.5,6.06.76,0,1.81-.06,5.36-1.18l.56,2.75A22,22,0,0,1,224.82,67c-5.33,0-7.77-3-7.77-9.16,0-6.93,2.75-10,7.52-10M220.36,56c2.58-.07,7.73-.14,7.73-.14,0-.62,0-1.29,0-1.5,0-3-1.33-4.32-3.63-4.32-2.54,0-4,1.43-4.14,6m4.21-9c-3.76,0-8.25,1.87-8.25,10.76,0,6.65,2.78,9.88,8.5,9.88A23.13,23.13,0,0,0,231,66.43l.63-.19-.13-.65-.56-2.75-.16-.79-.76.24c-3.39,1.06-4.4,1.15-5.15,1.15-2.42,0-3.64-.71-3.76-4.64,3.23-.08,6.34-.15,10-.22h.68l0-.68c0-.1.1-2.43.1-3,0-5-2.59-7.83-7.31-7.83Zm-3.46,8.24c.27-4.13,1.88-4.49,3.39-4.49,1.25,0,2.9.37,2.9,3.59v.79c-1.32,0-4.25.06-6.29.11Z"/><path class="cls-2" d="M172.56,67.31c-5.47,0-8.13-3.11-8.13-9.52,0-6.9,2.65-10.4,7.89-10.4,4.48,0,7,2.66,7,7.47,0,.6-.11,3-.11,3v.34h-.34c-3.47.07-6.88.14-10.38.23.07,4.49,1.52,5.35,4.13,5.35.78,0,1.82-.09,5.26-1.16l.38-.12.71,3.47-.32.09A22.49,22.49,0,0,1,172.56,67.31Zm-.31-16.9c-1.85,0-3.58.65-3.77,5.23,2.24,0,5.89-.11,7-.12,0-.51,0-1,0-1.15C175.51,51.71,174.44,50.41,172.25,50.41Z"/><path class="cls-4" d="M172.32,47.75c4.08,0,6.58,2.27,6.58,7.11,0,.59-.1,3-.1,3-3.59.07-7.11.14-10.73.24,0,4.74,1.39,6.06,4.49,6.06.77,0,1.81-.06,5.37-1.18l.56,2.75A22,22,0,0,1,172.56,67c-5.33,0-7.77-3-7.77-9.16,0-6.93,2.76-10,7.53-10M168.1,56c2.58-.07,7.74-.14,7.74-.14,0-.62,0-1.29,0-1.5,0-3-1.32-4.32-3.62-4.32-2.54,0-4,1.43-4.15,6m4.22-9c-3.76,0-8.25,1.87-8.25,10.76,0,6.65,2.78,9.88,8.49,9.88a23.06,23.06,0,0,0,6.13-1.24l.64-.19-.14-.65-.55-2.75-.16-.79-.77.24c-3.39,1.06-4.4,1.15-5.15,1.15-2.42,0-3.63-.71-3.76-4.64,3.23-.08,6.34-.15,10-.22h.68l0-.68c0-.1.11-2.43.11-3,0-5-2.6-7.83-7.31-7.83Zm-3.46,8.24c.27-4.13,1.88-4.49,3.39-4.49,1.24,0,2.9.37,2.9,3.59,0,.14,0,.44,0,.79-1.31,0-4.24.06-6.28.11Z"/><path class="cls-2" d="M153.58,75c-4.7,0-7-1.54-7-4.72a6,6,0,0,1,1.95-4.35,1.87,1.87,0,0,1-1.25-1.82,23.5,23.5,0,0,1,1.27-5.35,5.86,5.86,0,0,1-1.9-4.89c0-4,2.6-6.46,7-6.46a12.94,12.94,0,0,1,2.91.36h6.09l-.14.77c-.11.64-.23,1.26-.31,1.91l0,.31h-2.46a5.35,5.35,0,0,1,1,3.4c0,4-2.45,6.08-7.09,6.08a9.18,9.18,0,0,1-2.27-.24,15,15,0,0,0-.64,2.63,1.83,1.83,0,0,0,0,.34,3.41,3.41,0,0,0,.71.06l6.27.21c2.52.09,5.09.74,5.09,4.86C162.79,71.51,159.94,75,153.58,75Zm-2.34-8.53a4.72,4.72,0,0,0-1.14,3c0,1.4.62,2.21,3.79,2.21,1.6,0,5.32-.33,5.32-3.4,0-1.38-.46-1.59-2.13-1.66Zm2.37-16c-2.32,0-3.26,1-3.26,3.44s.82,3.33,3.26,3.33,3.37-.93,3.37-3.33S156.06,50.41,153.61,50.41Z"/><path class="cls-4" d="M153.61,47.75a12.44,12.44,0,0,1,2.82.35h5.75c-.14.77-.28,1.5-.38,2.27h-2.75v.24a4.75,4.75,0,0,1,1.29,3.52c0,4.11-2.65,5.71-6.73,5.71a8.56,8.56,0,0,1-2.51-.31,16,16,0,0,0-.76,3.07c0,.66.06.73,1.08.76l6.27.21c2.89.11,4.74,1.05,4.74,4.5s-3.11,6.55-8.85,6.55c-4.74,0-6.62-1.57-6.62-4.36a5.78,5.78,0,0,1,2-4.32V65.7a1.61,1.61,0,0,1-1.36-1.6A23.74,23.74,0,0,1,149,58.63c-1.19-1-1.95-2.2-1.95-4.78,0-3.8,2.33-6.1,6.58-6.1m0,9.8c2.75,0,3.73-1.22,3.73-3.7,0-2.89-1.29-3.8-3.73-3.8S150,51.1,150,53.85s1.15,3.7,3.62,3.7m.28,14.52c3.38,0,5.68-1.22,5.68-3.76,0-1.71-.77-2-2.48-2l-6-.21a5.25,5.25,0,0,0-1.33,3.42c0,1.81,1.08,2.57,4.15,2.57m-.28-25c-4.58,0-7.31,2.55-7.31,6.82a6.27,6.27,0,0,0,1.84,5,23.92,23.92,0,0,0-1.21,5.24A2.21,2.21,0,0,0,148,66a6.07,6.07,0,0,0-1.73,4.24c0,3.37,2.47,5.08,7.35,5.08,4.61,0,9.57-2.28,9.57-7.27,0-4.45-2.91-5.13-5.44-5.22l-6.27-.21-.38,0v0a14.17,14.17,0,0,1,.52-2.2,11,11,0,0,0,2,.17c6.16,0,7.45-3.5,7.45-6.44a6.16,6.16,0,0,0-.73-3h2.1l.08-.63c.09-.63.2-1.25.32-1.9l.06-.33.16-.85h-6.53a13.59,13.59,0,0,0-2.91-.35Zm0,9.79c-2.25,0-2.9-.66-2.9-3s.76-3.07,2.9-3.07,3,.77,3,3.07-.79,3-3,3Zm.28,14.53c-3.17,0-3.42-.84-3.42-1.85a4.15,4.15,0,0,1,1-2.68l5.64.19c1.65.07,1.78.24,1.78,1.3,0,2.65-3.11,3-5,3Z"/><path class="cls-2" d="M82.12,67V52.7c0-1.23-.17-1.69-1.94-1.69a12.25,12.25,0,0,0-5.28,1.33V67H71.08V47.74H74.9v1.51c3.13-1.49,4.42-1.86,6.4-1.86,3.12,0,4.64,1.47,4.64,4.48V67Z"/><path class="cls-4" d="M81.3,47.75c2.61,0,4.28,1,4.28,4.12V66.6h-3.1V52.7c0-1.46-.35-2.05-2.3-2.05a12.91,12.91,0,0,0-5.64,1.46V66.6h-3.1V48.1h3.1v1.61h.24c3.35-1.61,4.6-2,6.52-2m0-.72c-1.9,0-3.24.35-6,1.65v-1.3H70.71V67.33h4.55V52.57a12,12,0,0,1,4.92-1.2c1.58,0,1.58.28,1.58,1.33V67.33h4.55V51.87c0-3.21-1.69-4.84-5-4.84Z"/></g></g></svg>